<?xml version="1.0" encoding="UTF-8"?><svg id="Layer_1" xmlns="http://www.w3.org/2000/svg" viewBox="0 0 800 800"><defs><style>.cls-1,.cls-2,.cls-3,.cls-4{stroke-miterlimit:10;}.cls-1,.cls-2,.cls-3,.cls-4,.cls-5,.cls-6{stroke:#000;stroke-width:3px;}.cls-1,.cls-2,.cls-6{fill:none;}.cls-1,.cls-5,.cls-6{stroke-linecap:round;}.cls-7{fill:#faaf41;}.cls-4,.cls-5{fill:#fff;}.cls-5,.cls-6{stroke-linejoin:round;}</style></defs><path id="background_shape" class="cls-7" d="M655,366.73c-28.53,105.15-32.88,213.74-153.62,213.74s-334.82-88.47-334.82-197.61,66.11-177.56,177.26-225.84c129.99-56.46,350.57,64.52,311.18,209.71Z"/><g id="chair"><line class="cls-2" x1="581.5" y1="418.87" x2="376.35" y2="685.93"/><line class="cls-2" x1="405.14" y1="418.87" x2="590.86" y2="675.13"/><path id="chair-2" class="cls-2" d="M375.63,419.5s202.15-1.11,228.19-1.26"/></g><path id="head" class="cls-4" d="M484.21,114.74c-.45,0-18.72,2.32-38.76-9.69-10.08,6.18-5.89,12.77-4.37,32.94,1.09,14.18,4.53,24.09,14.82,29.93,8.91,5.09,13.52,.69,17.36,8.69,1.44,8.32-.8,12-3.8,20.52,6.87,14.79,35.27,12.36,40.25,.51-1.35-3.63-5.09-9.38-11.33-22.08-4.35-8.84-10.58-23.13-12.99-32.7,11.49-.12,6.74-25.57-1.18-28.12Z"/><path id="ear" class="cls-1" d="M483.95,130.21s1.16-1.75-.55-2.5"/><path id="brow" class="cls-1" d="M462.94,124.5c-1.04-.94-3.76-2.53-6.24-.44"/><path id="_brow" class="cls-1" d="M445.41,125.78c.91-1.07,3.96-2.99,6.14-1.27"/><path id="nose" class="cls-1" d="M453.52,132.41c1.28,7.88-4.97,8.95-2.26,10.97,.96,.74,2.88,.64,3.92-.26"/><path id="eye" d="M446.44,132.66c-.13-1.11,.67-2.15,1.82-2.28,1.11-.13,2.12,.71,2.24,1.83,.13,1.15-.67,2.15-1.78,2.28-1.15,.13-2.15-.67-2.28-1.82Zm0,0c-.13-1.11,.67-2.15,1.82-2.28,1.11-.13,2.12,.71,2.24,1.83,.13,1.15-.67,2.15-1.78,2.28-1.15,.13-2.15-.67-2.28-1.82Z"/><path id="eye-2" d="M457.78,131.8c-.13-1.11,.67-2.15,1.82-2.28,1.11-.13,2.12,.71,2.24,1.83,.13,1.15-.67,2.15-1.78,2.28-1.15,.13-2.15-.67-2.28-1.82Zm0,0c-.13-1.11,.67-2.15,1.82-2.28,1.11-.13,2.12,.71,2.24,1.83,.13,1.15-.67,2.15-1.78,2.28-1.15,.13-2.15-.67-2.28-1.82Z"/><path id="mouth" class="cls-1" d="M456.12,155.82s7.19-1.32,7.88-6.65"/><path id="hair" class="cls-3" d="M475.67,102.15c-6-7.96-13.51-9.79-26.1-7.68-16.29,2.71-22.79,10.15-17.96,18.75,4.86,8.57,32.54,3.48,37.01,1.65,4.91-2,8.46,.92,6.84,4.18-1.07,2.32-1.35,3.77-.8,6.85-.11,.13,3.02,1.92,3.02,1.92-.11-4.15,3.64-7.32,7.02-6.8,2.4,.36,7.34,3.82,4.71,10.49-1.39,3.48-4.8,7.45-10.04,6.26-.75,7.3,9.46,14.54,9.46,14.54,0,0,6.82-16.04,7.18-24.68,.22-5.55-1.34-27.41-20.35-25.47Z"/><path class="cls-4" d="M406.16,212.79c-4.31,10.55,2.2,63.49-4.37,64.33-19.17,2.44-35.81-6.82-52.53-13.4-7.68-3.02-15.69-17.64-21.37-16.86-7.98,1.1,3.9,9.28,.97,15.15-.39,.78-6.4,.47-6.75,7.53-.28,5.63-.83,26.95,1.08,30.97s20.68-.56,27.24-.71c13.64-.3,48.74,15.31,62.85,12.23,47.27-10.32,31.99-45.44,45.13-79.58-10.02-17.52-33.89-21.8-52.24-19.68Z"/><path id="tshirt" class="cls-4" d="M506.49,192.12c4.44,16.41-28.52,14.34-35.51,1.32-4.13-7.68-33.47-.42-49.45,14.67-.87,13.77,6.77,81.01,7.7,90.58,44.48,2.82,111.09,10.86,140.34,12,.45-32.87,1.05-85.35-2.97-100.31-2.84-10.55-25.27-21.36-60.11-18.25Z"/><path id="sleeve" class="cls-4" d="M548.35,259.76c6.21-4.88,49.52-33.57,46.32-39.01-9.9-16.85-36.04-26.65-50.57-8.46-14.12,17.68-8.63,31.74,4.25,47.48Z"/><g><path id="boot_L" class="cls-4" d="M415.82,665.06c-1.55,16.97-14.74,19.7-12.29,32.83s26.37,4.2,33.84,.53c25.2-12.36,57.9-22.54,78.08-41.04,15.99-14.66-28.83-71.98-31.18-75.11s-90,36.34-88.37,39.16c7.03,12.2,21.03,31.45,19.92,43.63Z"/><path id="boot_R" class="cls-4" d="M177.48,646.78c-11.61,15.95-25.85,11.18-32.21,24.52-6.36,13.34,7.75,14.07,16.47,15.65,28.47,5.17,74.38,13.99,100.82,3.9,13.96-5.33,16.76-62.7,16.78-78.38,0-5.53-88.38-15.43-91.41-10.72-4.82,12.95-4.19,36.46-10.44,45.04Z"/><path id="pants" class="cls-3" d="M568.94,311.05c-43.38-13.06-94.31-15-139.08-15.36-64.39,10.46-99.8-7.22-159.52,34.91-59.72,42.13-87.27,198.01-82.23,269.63,30.03,4.22,60.79,9.45,91.48,10.65,2.48-36.31,29.99-177.22,59.66-193.19,21.9,73.63,6.86,137.59,57.22,205.07,.96,1.29,76.73-34.04,86.93-40.08-20.66-49.68-48.08-116.87-26.35-170.89,34.49,3.79,77.44,12.89,102.38-18.85,18.25-23.22,12.93-54.68,9.52-81.88Z"/></g><g><g><path class="cls-4" d="M419.69,380.12c-17.29-8.96-53.1-20.1-72.25-27.52-9.73-3.02-21.23-8.64-25.1-18.75-4.6-58.28,18.18-117.56,9.27-175.88,12.74,.4,25.32,3.63,36.15,10.27,22.47,9.67,45.96,17.34,68.61,26.66,0,0-16.68,185.21-16.68,185.21Z"/><g><g><path class="cls-6" d="M377.36,284.58c9.69,4.77,19.79,8.69,30.16,11.71"/><path class="cls-6" d="M337.44,269.2c9.69,4.77,19.79,8.69,30.16,11.71"/></g><g><path class="cls-6" d="M374.98,300.33c9.69,4.77,19.79,8.69,30.16,11.71"/><path class="cls-6" d="M335.06,284.95c9.69,4.77,19.79,8.69,30.16,11.71"/></g><g><path class="cls-6" d="M375.16,318.28c9.69,4.77,19.79,8.69,30.16,11.71"/><path class="cls-6" d="M335.24,302.89c9.69,4.77,19.79,8.69,30.16,11.71"/></g><g><path class="cls-6" d="M374.43,334.76c9.69,4.77,19.79,8.69,30.16,11.71"/><path class="cls-6" d="M334.51,319.37c9.69,4.77,19.79,8.69,30.16,11.71"/></g></g><path class="cls-4" d="M420.51,379.75c.03,.15,.06,.31,.09,.46,32.04,.26,64.1-1.46,95.94-5.14,3.62-27.91,17.23-53.45,24.63-80.6,4.73-17.36,6.9-35.3,7.92-53.22,.96-16.95-1.07-31.6,7.83-47.02-25.79-6.54-53.29-6.75-79.56-2.84-11.94,.6-23.76,3.9-35.66,3.82-1.71-.22-4.05-1.77-5.61-.44-2.2,1.88-1.55,11.95-1.79,14.58-2.99,33.17-5.98,66.35-8.96,99.52-.91,23.69-6.96,47.24-4.82,70.89Z"/><g><path class="cls-6" d="M446.68,308.85c23.22-2.5,46.44-5.01,69.66-7.51"/><path class="cls-6" d="M440.35,327.44c23.95-3.41,48.05-5.71,72.21-6.86"/><path class="cls-6" d="M442.16,343.28c20.08-.63,40.17-1.26,60.25-1.89"/><path class="cls-6" d="M438.79,360.62c21.45-2.01,42.9-4.02,64.36-6.03"/></g></g><path class="cls-6" d="M348.5,182c9.91,4.08,69.48,27.87,69.48,27.87"/><path class="cls-3" d="M340.59,242.26c-3.3,13.2,22.79,14.35,31.33,18.38,12.41,4.43,41.13,25.92,43.77,13.16,2.49-11.2,8.28-34.59,1.68-45.72-2.52-4.04-61.64-37.03-72.49-25.31-4.29,4.64-3.77,29.46-4.29,39.49Z"/><path class="cls-3" d="M486.34,225.94c4.76,8.77-1.51,30.25-1.62,41.53-.46,4.27-1.59,14.99-4.14,18.45-4.79,7.6-31.79,5.52-35.4-4.9-.96-11.28,1.7-20.4,1.77-31.76,.3-6.82-1.74-20.09,2.06-25.97,3.03-6.36,34.98-2.88,37.33,2.65Z"/><line class="cls-6" x1="500.91" y1="227.93" x2="538.94" y2="224.92"/><line class="cls-6" x1="499.03" y1="245.63" x2="537.06" y2="242.61"/><line class="cls-6" x1="497.14" y1="263.33" x2="535.18" y2="260.31"/><line class="cls-6" x1="495.26" y1="281.02" x2="533.29" y2="278.01"/></g><path id="arm_L" class="cls-4" d="M549.45,258.11c11.49,13.43,27.15,24.69,26.61,37.68-.3,7.21-.9,14.11-16.73,18.29-9.15,2.41-17.42-13.78-27.37-13.36-6.31,.27,3.97,11.49,.09,14.8-2.76,2.36-15.75-13.1-19.27-8.79-5.94,7.29,15.65,14.67,13.36,18.62-2.65,4.58-20.89-13.24-23.64-4.75-3.03,9.36,20.69,9.49,20.64,15.89-.04,5.16-19.34-7.25-19.88-.28-.76,9.79,16.33,6.26,19.93,10.64,3.6,4.38-20.71-3.68-12.37,4.39,8.94,8.65,24.63,5.01,40.75,2.92,61.55-10.64,99.46-67.4,43.11-133.42-18.65,7.64-33.55,20.83-45.22,37.37Z"/><path class="cls-5" d="M339.12,271.16c2.01,1.45,4.18,3.86,3.08,6.08-1.02,2.04-4.06,2-6.05,.88s-4.49-3.1-6.63-3.89c-.79-.3-1.86-.35-2.32,.35-.62,.95,.43,2.09,1.37,2.73,2.59,1.78,6.11,3.7,8.7,5.48,.98,.67,1.98,1.37,2.63,2.36s.85,2.37,.18,3.35c-.99,1.44-3.23,1.25-4.78,.44s-5.62-2.77-7.1-2.99-2.08-.71-2.44,.46c-.19,.61,.52,2.27,1.26,2.52,1.3,.44,5.39,3.34,6.81,4.19s2.69,2.15,2.97,3.78-.76,3.53-2.4,3.73c-1.34,.17-4.87-2.85-5.91-3.38s-2.45-.93-3.38-.27c-1.4,.98-.07,2.61,1.04,3.96,1.76,2.14,5.79,3.46,6.06,5.46,.27,2.06-1.87,4.1-3.94,3.94s-4.12-1-5.64-2.42c-1.89-1.76-3.09-3.25-3.75-5.74-.44-1.63-.34-3.35-.25-5.04,.56-10.11,1.13-20.21,1.69-30.32,.23-4.14,2.91-7.2,6.7-4.27s8.04,5.69,12.1,8.63Z"/></svg>