<svg id="Layer_1" data-name="Layer 1" xmlns="http://www.w3.org/2000/svg" xmlns:xlink="http://www.w3.org/1999/xlink" viewBox="0 0 1200 1200"><defs><style>.cls-1,.cls-10,.cls-11,.cls-12,.cls-13,.cls-14,.cls-15,.cls-6,.cls-7,.cls-8{fill:none;}.cls-2{fill:#e9e8e8;}.cls-3{fill:#9dd5c0;}.cls-4{fill:#1d252e;}.cls-5{fill:#fff;}.cls-10,.cls-11,.cls-12,.cls-13,.cls-14,.cls-15,.cls-6,.cls-7,.cls-8{stroke:#1d252e;stroke-linecap:round;}.cls-6,.cls-7{stroke-width:1.79px;}.cls-10,.cls-11,.cls-12,.cls-13,.cls-15,.cls-7,.cls-8{stroke-linejoin:round;}.cls-11,.cls-12,.cls-8{stroke-width:4px;}.cls-13,.cls-8{stroke-dasharray:10.71 18.75;}.cls-9{clip-path:url(#clip-path);}.cls-10,.cls-13{stroke-width:3.57px;}.cls-11{stroke-dasharray:6.83;}.cls-14,.cls-15{stroke-width:2.95px;}</style><clipPath id="clip-path"><circle class="cls-1" cx="459.87" cy="259.01" r="45.73"/></clipPath></defs><path id="Path-141" class="cls-2" d="M758.14,467.29C647.45,392.45,393.16,193.21,260,309.14S199.75,981.74,592,921.8c147.36-22.52,370-34.95,401.22-104C1045.12,702.94,827.25,514,758.14,467.29Z"/><path class="cls-3" d="M942.82,274.83V407.66H852.46a28.25,28.25,0,0,1-28.25-28.25V259.34H927.33v15.49Z"/><rect class="cls-4" x="840.86" y="319.53" width="85.11" height="1.94"/><rect class="cls-4" x="840.86" y="326.79" width="85.11" height="1.94"/><rect class="cls-4" x="840.86" y="334.05" width="85.11" height="1.94"/><rect class="cls-4" x="840.86" y="341.31" width="68.38" height="1.94"/><rect class="cls-4" x="840.86" y="280.33" width="85.11" height="1.94"/><rect class="cls-4" x="840.86" y="287.59" width="85.11" height="1.94"/><rect class="cls-4" x="840.86" y="294.85" width="85.11" height="1.94"/><rect class="cls-4" x="840.86" y="302.11" width="68.38" height="1.94"/><rect class="cls-4" x="840.86" y="355.6" width="85.11" height="1.94"/><rect class="cls-4" x="840.86" y="362.86" width="85.11" height="1.94"/><rect class="cls-4" x="840.86" y="370.12" width="85.11" height="1.94"/><rect class="cls-4" x="840.86" y="377.38" width="68.38" height="1.94"/><polygon class="cls-4" points="942.83 274.83 927.33 274.83 927.33 259.34 942.83 274.83"/><path class="cls-3" d="M1139.62,334.28V502.77H1025a35.83,35.83,0,0,1-35.83-35.83V314.63H1120v19.65Z"/><rect class="cls-4" x="1070.38" y="332.67" width="26.63" height="4.93"/><rect class="cls-4" x="1010.27" y="393.74" width="107.97" height="2.46"/><rect class="cls-4" x="1010.27" y="402.95" width="107.97" height="2.46"/><rect class="cls-4" x="1010.27" y="412.16" width="107.97" height="2.46"/><rect class="cls-4" x="1010.27" y="421.37" width="86.74" height="2.46"/><rect class="cls-4" x="1070.38" y="345.85" width="47.85" height="2.46"/><rect class="cls-4" x="1070.38" y="355.06" width="47.85" height="2.46"/><rect class="cls-4" x="1070.38" y="364.27" width="47.85" height="2.46"/><rect class="cls-4" x="1070.38" y="373.48" width="38.45" height="2.46"/><rect class="cls-4" x="1010.27" y="439.5" width="107.97" height="2.46"/><rect class="cls-4" x="1010.27" y="448.71" width="107.97" height="2.46"/><rect class="cls-4" x="1010.27" y="457.92" width="107.97" height="2.46"/><rect class="cls-4" x="1010.27" y="467.13" width="86.74" height="2.46"/><rect class="cls-5" x="1010.53" y="332.67" width="50.73" height="50.73"/><circle class="cls-4" cx="1024.07" cy="349.5" r="3.22"/><polygon class="cls-4" points="1040.19 350.58 1034.78 359.18 1029.44 354.96 1020.84 367.77 1050.94 367.77 1040.19 350.58"/><polygon class="cls-4" points="1139.62 334.28 1119.96 334.28 1119.96 314.63 1139.62 334.28"/><path class="cls-3" d="M777.55,365.41V681.64H562.41a67.26,67.26,0,0,1-67.26-67.26V328.52H740.66v36.89Z"/><rect class="cls-5" x="526.85" y="479.84" width="204.71" height="74.53" rx="4.04"/><rect class="cls-4" x="534.78" y="376.63" width="203.14" height="9.25" rx="2.31"/><rect class="cls-4" x="534.78" y="411" width="202.64" height="4.63" rx="2.31"/><rect class="cls-4" x="534.78" y="428.28" width="202.64" height="4.63" rx="2.31"/><rect class="cls-4" x="534.78" y="445.57" width="202.64" height="4.63" rx="2.31"/><rect class="cls-4" x="534.78" y="462.85" width="162.8" height="4.63" rx="2.31"/><rect class="cls-4" x="555.69" y="492.58" width="162.8" height="4.63" rx="2.31"/><rect class="cls-4" x="534.78" y="567.95" width="202.64" height="4.63" rx="2.31"/><rect class="cls-4" x="534.78" y="585.24" width="202.64" height="4.63" rx="2.31"/><rect class="cls-4" x="534.78" y="602.52" width="202.64" height="4.63" rx="2.31"/><rect class="cls-4" x="534.78" y="619.81" width="162.8" height="4.63" rx="2.31"/><circle class="cls-4" cx="539.5" cy="494.89" r="3.4"/><rect class="cls-4" x="555.69" y="513.91" width="162.8" height="4.63" rx="2.31"/><circle class="cls-4" cx="539.5" cy="516.22" r="3.4"/><rect class="cls-4" x="555.69" y="535.24" width="162.8" height="4.63" rx="2.31"/><circle class="cls-4" cx="539.5" cy="537.55" r="3.4"/><polygon class="cls-4" points="777.54 365.41 740.66 365.41 740.66 328.52 777.54 365.41"/><circle class="cls-3" cx="743.17" cy="745.67" r="10.78"/><circle class="cls-6" cx="743.17" cy="745.67" r="12.63"/><path class="cls-5" d="M747.75,741.08l-6.59,6.59-2.37-2.38a1.25,1.25,0,0,0-1.77,0l-.27.27a1.25,1.25,0,0,0,0,1.77l3.26,3.25a1.24,1.24,0,0,0,1.76,0l7.74-7.74a1.24,1.24,0,0,0,0-1.76h0A1.24,1.24,0,0,0,747.75,741.08Z"/><rect class="cls-3" x="530.98" y="733.38" width="104.39" height="7.12"/><rect class="cls-3" x="530.98" y="750.55" width="186.78" height="7.12"/><path class="cls-3" d="M498.21,718.55v5.26L420.64,725l.11-6.49,34.56-25.63,3.21-2.37a1.49,1.49,0,0,1,1.77,0l2.84,2.1Z"/><rect class="cls-3" x="420.64" y="718.74" width="77.53" height="53.59" rx="3.01"/><line class="cls-7" x1="426.21" y1="718.73" x2="490.69" y2="718.74"/><polyline class="cls-4" points="493.59 722.13 459.4 747.5 425.27 722.16"/><polyline class="cls-7" points="493.59 722.13 459.4 747.5 425.27 722.16"/><path class="cls-4" d="M463.13,692.62a4.28,4.28,0,0,1-7.82.27l3.21-2.37a1.49,1.49,0,0,1,1.77,0Z"/><line class="cls-7" x1="424.62" y1="766.38" x2="445.33" y2="766.39"/><line class="cls-7" x1="424.62" y1="761.76" x2="451.76" y2="761.76"/><line class="cls-8" x1="459.87" y1="304.74" x2="459.87" y2="691.48"/><g class="cls-9"><circle class="cls-5" cx="459.87" cy="259.01" r="45.73"/><path id="Path-102" class="cls-4" d="M478.32,248.16q2.4-7.28-.26-11.6a20.67,20.67,0,0,0-19.48-9.19c-10.13.87-18.42,9.52-21,19.32q-2.58,9.82.93,21.31c1.67,2.53,3.49,3.85,5.45,3.94,2.95.15,9-1.07,11.07-3.11Q457.14,266.77,478.32,248.16Z"/><path id="Path-103" class="cls-5" d="M477,248.09l2.35,7.42-1.3,8.43-4.55,5.94-4.77,2.63-.71,12.9,10.67.48-1.37,15.44c-6.34,3.51-13.05,3.32-20,.37L437,288l16.91-2.53,1.82-13.65-4.11-6-1.76-5.59-3.7-.59-.84-5.9,2.79-2.83,5-.81,3.4-5.22L456,240.4l12.94,7.29Z"/><path id="Path-86" class="cls-7" d="M477,248.09a19.89,19.89,0,0,1,1.55,14.4q-1.95,7.39-10.32,10l-.18,12.93,7.68.24"/><path id="Path-87" class="cls-7" d="M476.81,247.56c-1.26.8-3.69.68-7.27-.36s-8.09-3.31-13.54-6.8a8.84,8.84,0,0,1-.33,6.1,8.39,8.39,0,0,1-3.81,4.38q-4.56-1.41-6,2.13c-1.45,3.54-.38,6.56.79,7.13a5.07,5.07,0,0,0,3.16.16q-.19,2.76,2.23,6.48c1.63,2.48,2.85,3.85,3.69,4.1l-1.26,14.74-9.77,1.13"/><path id="Path-98" class="cls-7" d="M469.79,271.9a9.4,9.4,0,0,1-3.59,1,15.59,15.59,0,0,1-5.48-.5"/><path id="Path-104" class="cls-7" d="M444.61,273.5a5.1,5.1,0,0,1-2.87-.14,8.23,8.23,0,0,1-3.68-3"/><path id="Path-105" class="cls-4" d="M444.18,275.36c-.73.33-2,.27-3.74-.18a6.45,6.45,0,0,1-4.14-3.62q-2.21-.1-4.59,4.06c-2.39,4.16-1.31,9.62-3.22,12.36a17.38,17.38,0,0,1-5.95,5q12.78,2.21,17.6-4.84T444.18,275.36Z"/><path class="cls-3" d="M489.85,323.26q-6.12-.09-12.26-.26c-9.65-.24-19.3-.56-28.95-.76-7.64-.15-15.28-.12-22.92-.1-2.25-5.42-4.88-14.58-1.94-23.32,1.83-6.15,7.86-11,15.91-11.77,8.12-.47,14.7,15.09,27.75,14.87s7.24-15.36,10.37-16.66c1.25-.52,5.09,1.58,10.27,5.69,7.85,6.23,6.16,10.13,5.18,21.37Z"/></g><path class="cls-4" d="M608.68,250.91H525.09a2,2,0,1,1,0-4h83.59a2,2,0,1,1,0,4Z"/><line class="cls-10" x1="643.31" y1="261.87" x2="525.09" y2="261.87"/><line class="cls-10" x1="625.79" y1="272.92" x2="525.09" y2="272.92"/><circle class="cls-10" cx="459.87" cy="259.01" r="45.73"/><circle class="cls-3" cx="677.9" cy="261.62" r="10.78"/><circle class="cls-6" cx="677.9" cy="261.62" r="12.63"/><path class="cls-5" d="M682.47,257l-6.58,6.59-2.38-2.38a1.27,1.27,0,0,0-1.77,0l-.27.28a1.26,1.26,0,0,0,0,1.76l3.26,3.26a1.25,1.25,0,0,0,1.77,0l7.74-7.74a1.25,1.25,0,0,0,0-1.77h0A1.27,1.27,0,0,0,682.47,257Z"/><path class="cls-3" d="M264.48,321.31V495.17H146.2a37,37,0,0,1-37-37V301h135v20.28Z"/><polygon class="cls-4" points="264.48 321.31 244.21 321.31 244.21 301.03 264.48 321.31"/><path class="cls-4" d="M186.14,456.33a57.35,57.35,0,0,1-57.28-57.28,12.91,12.91,0,0,1,25.81,0,31.47,31.47,0,0,0,49.05,26.1,12.91,12.91,0,0,1,14.45,21.39A57,57,0,0,1,186.14,456.33Z"/><path class="cls-5" d="M211,448.75a12.91,12.91,0,0,1-7.24-23.6,31.49,31.49,0,0,0,7.72-44.81,12.92,12.92,0,0,1,2.69-18A12.91,12.91,0,0,1,232.18,365a57.3,57.3,0,0,1-14,81.56A12.9,12.9,0,0,1,211,448.75Z"/><path class="cls-3" d="M141.77,412a12.91,12.91,0,0,1-12.91-12.91A57.28,57.28,0,0,1,232.18,365a12.9,12.9,0,0,1-20.74,15.36,31.47,31.47,0,0,0-56.77,18.71A12.91,12.91,0,0,1,141.77,412Z"/><path class="cls-11" d="M141.77,412a12.91,12.91,0,0,1-12.91-12.91A57.28,57.28,0,0,1,232.18,365a12.9,12.9,0,0,1-20.74,15.36,31.47,31.47,0,0,0-56.77,18.71A12.91,12.91,0,0,1,141.77,412Z"/><line class="cls-12" x1="232.65" y1="408.9" x2="279.67" y2="408.9"/><rect class="cls-3" x="276.29" y="388.79" width="110.09" height="40.75" rx="3.2"/><path class="cls-4" d="M376.28,405h-9.59a1.87,1.87,0,1,1,0-3.74h9.59a1.87,1.87,0,0,1,0,3.74Zm-17.82,0H354a1.87,1.87,0,0,1,0-3.74h4.49a1.87,1.87,0,0,1,0,3.74Zm-12.72,0h-8.23a1.87,1.87,0,1,1,0-3.74h8.23a1.87,1.87,0,0,1,0,3.74Zm-17.21,0h-12a1.87,1.87,0,0,1,0-3.74h12a1.87,1.87,0,0,1,0,3.74Zm-20.21,0h-4.49a1.87,1.87,0,0,1,0-3.74h4.49a1.87,1.87,0,1,1,0,3.74Zm-12.72,0h-8.23a1.87,1.87,0,0,1,0-3.74h8.23a1.87,1.87,0,0,1,0,3.74Z"/><path class="cls-4" d="M328.53,418.15h-12a1.87,1.87,0,0,1,0-3.74h12a1.87,1.87,0,1,1,0,3.74Zm-20.21,0h-4.49a1.87,1.87,0,0,1,0-3.74h4.49a1.87,1.87,0,1,1,0,3.74Zm-12.72,0h-8.23a1.87,1.87,0,0,1,0-3.74h8.23a1.87,1.87,0,1,1,0,3.74Z"/><polyline class="cls-12" points="155.96 438.29 92.01 438.29 92.01 529.96"/><rect class="cls-3" x="60.38" y="525.98" width="110.09" height="57.5" rx="3.8"/><path class="cls-4" d="M160.37,543.16h-9.59a1.87,1.87,0,1,1,0-3.74h9.59a1.87,1.87,0,1,1,0,3.74Zm-17.82,0h-4.49a1.87,1.87,0,1,1,0-3.74h4.49a1.87,1.87,0,0,1,0,3.74Zm-12.72,0H121.6a1.87,1.87,0,1,1,0-3.74h8.23a1.87,1.87,0,0,1,0,3.74Zm-17.21,0h-12a1.87,1.87,0,1,1,0-3.74h12a1.87,1.87,0,0,1,0,3.74Zm-20.2,0H87.93a1.87,1.87,0,1,1,0-3.74h4.49a1.87,1.87,0,1,1,0,3.74Zm-12.72,0H71.47a1.87,1.87,0,1,1,0-3.74H79.7a1.87,1.87,0,0,1,0,3.74Z"/><path class="cls-4" d="M160.37,556.3h-9.59a1.87,1.87,0,0,1,0-3.74h9.59a1.87,1.87,0,0,1,0,3.74Zm-17.82,0h-4.49a1.87,1.87,0,0,1,0-3.74h4.49a1.87,1.87,0,0,1,0,3.74Zm-12.72,0H121.6a1.87,1.87,0,1,1,0-3.74h8.23a1.87,1.87,0,0,1,0,3.74Zm-17.21,0h-12a1.87,1.87,0,0,1,0-3.74h12a1.87,1.87,0,0,1,0,3.74Zm-20.2,0H87.93a1.87,1.87,0,0,1,0-3.74h4.49a1.87,1.87,0,0,1,0,3.74Zm-12.72,0H71.47a1.87,1.87,0,0,1,0-3.74H79.7a1.87,1.87,0,0,1,0,3.74Z"/><path class="cls-4" d="M112.62,569.45h-12a1.87,1.87,0,0,1,0-3.74h12a1.87,1.87,0,0,1,0,3.74Zm-20.2,0H87.93a1.87,1.87,0,0,1,0-3.74h4.49a1.87,1.87,0,0,1,0,3.74Zm-12.72,0H71.47a1.87,1.87,0,0,1,0-3.74H79.7a1.87,1.87,0,0,1,0,3.74Z"/><polyline class="cls-12" points="185.62 350.12 185.62 272.87 241.88 272.87"/><rect class="cls-3" x="225.98" y="236.79" width="110.09" height="57.5" rx="3.8"/><path class="cls-4" d="M326,254h-9.59a1.87,1.87,0,0,1,0-3.74H326a1.87,1.87,0,0,1,0,3.74Zm-17.82,0h-4.49a1.87,1.87,0,0,1,0-3.74h4.49a1.87,1.87,0,0,1,0,3.74Zm-12.72,0H287.2a1.87,1.87,0,1,1,0-3.74h8.23a1.87,1.87,0,0,1,0,3.74Zm-17.21,0h-12a1.87,1.87,0,0,1,0-3.74h12a1.87,1.87,0,0,1,0,3.74ZM258,254h-4.49a1.87,1.87,0,0,1,0-3.74H258a1.87,1.87,0,0,1,0,3.74Zm-12.72,0h-8.23a1.87,1.87,0,0,1,0-3.74h8.23a1.87,1.87,0,0,1,0,3.74Z"/><path class="cls-4" d="M278.22,280.26h-12a1.87,1.87,0,0,1,0-3.74h12a1.87,1.87,0,0,1,0,3.74Zm-20.21,0h-4.49a1.87,1.87,0,1,1,0-3.74H258a1.87,1.87,0,0,1,0,3.74Zm-12.72,0h-8.23a1.87,1.87,0,0,1,0-3.74h8.23a1.87,1.87,0,0,1,0,3.74Z"/><rect class="cls-4" x="235.03" y="261.08" width="92.46" height="7.87" rx="0.8"/><line class="cls-13" x1="250.84" y1="313" x2="459.26" y2="313"/><path id="Path-102-2" data-name="Path-102" class="cls-4" d="M290.39,477.75q1.74-10.47-2.8-15.82a28.65,28.65,0,0,0-28.6-8.47c-13.68,3.32-23.17,16.88-24.63,30.86-1.81,11.75,1,19,5.77,29q4.23,4.66,8.29,4.25c4.06-.42,12.06-3.36,14.49-6.6Q265.32,507.69,290.39,477.75Z"/><path id="Path-104-2" data-name="Path-104" class="cls-14" d="M249.6,519.53a7,7,0,0,1-4,.41c-1.62-.23-3.51-1.35-5.67-3.38"/><path id="Path-105-2" data-name="Path-105" class="cls-4" d="M249.41,522.17q-1.41.9-5.16.53a8.91,8.91,0,0,1-6.43-4.08q-3,.32-5.42,6.53c-2.39,6.2.24,13.43-1.81,17.59a23.81,23.81,0,0,1-7.08,8.06q18,.3,23.05-10.33T249.41,522.17Z"/><polygon id="Path-109" class="cls-5" points="309.75 790.09 298.5 949.32 339.06 977.29 268.81 979.19 277.53 787.63 309.75 790.09"/><path id="Path-109-Copy" class="cls-5" d="M254.2,783.85c-2.44,44.65-8.24,77.6-10.95,100.09s-8,44.76-7.11,59.91l43.62,34.4-64.38-1.55c-2.18-.45-4.12-4.91-4.15-17.67l9.48-177.79Z"/><polygon id="Path-103-2" data-name="Path-103" class="cls-5" points="288.57 479 291.99 489.21 290.37 500.91 284.2 509.22 277.65 512.98 277.24 525.02 277.36 533.05 291.15 535.43 288.85 545.13 257.17 556.24 242.95 539.13 246.75 534.62 257.89 535.11 259.54 512.36 253.74 504.18 251.15 496.48 246.02 495.74 244.72 487.59 248.52 483.6 255.35 482.38 259.95 475.07 259.27 468.79 277.34 478.61 288.57 479"/><path id="Path-89" class="cls-4" d="M303.69,674.92c8.19,40.75,15.94,66.27,18.69,82.92s4.23,27,4.41,30.94q-76,9.87-94.22,7.66t-30.84-9.77c7.61-59.41,14-97.49,20.6-112.14S256.08,660,303.69,674.92Z"/><path id="Path-86-2" data-name="Path-86" class="cls-14" d="M288.57,479A27.43,27.43,0,0,1,291,498.86Q288.5,509.15,277,512.92l.4,20.13,9.64,2.07"/><path id="Path-87-2" data-name="Path-87" class="cls-14" d="M288.22,478.26q-2.6,1.69-10.06-.35t-18.89-9.12a12.33,12.33,0,0,1-.29,8.47,11.72,11.72,0,0,1-5.18,6.14q-6.36-1.86-8.29,3.07c-1.94,4.93-.39,9.1,1.26,9.86a7,7,0,0,0,4.37.15c-.14,2.55.93,5.52,3.24,8.92s4,5.27,5.19,5.6l-.76,22.27-11.32,1.38"/><path id="Path-108" class="cls-5" d="M331.05,549.16l30.39,5.65,21-45.07,3.71-13.14,10.07-8.87,8.46-3.62c9.33,2.3,9.82,9.57,1.7,21.68l-9,7.11L379,569.75l-5.5,10-6.65,1.75-38.74-3.65Z"/><path id="Path-88" class="cls-3" d="M291.15,535.43c-.34,5.17-11.75,10.49-18.27,11S251.15,541,243,534.91c-14.05-1-16.13,2.46-21,13.05-6,18.92,7,46.69,7,46.69l-7.39,80.21,85.06,2.39q-1-20.12-1.59-28.35c-1.52-22.33-2.87-35.49-3.49-39.08,1.13-4.12,5.23-25.09,3.76-27.31l27.42-.82,3.29-34.08C322.92,542.46,313.15,540.18,291.15,535.43Z"/><path id="Path-108-2" data-name="Path-108" class="cls-14" d="M339.37,550.59l22.07,4.22,21-45.07,3.71-13.14c5.48-6.32,11.52-10.93,18.53-12.49,9.33,2.3,9.82,9.57,1.7,21.68l-9,7.11L379,569.75l-5.5,10-6.65,1.75-28.1-2.37"/><path id="Path-94" class="cls-14" d="M253.12,800.85,236,945.15l43.51,31.42a1.2,1.2,0,0,1,.27,1.68,1.22,1.22,0,0,1-1,.5q-59.28-.29-63.4-2T211.46,960l8.59-162.25"/><path id="Path-95" class="cls-14" d="M309.8,794.49,298.5,949.32l40,27.31a1.2,1.2,0,0,1-.68,2.2l-51.21-.06h0"/><line id="Path-96" class="cls-14" x1="277.9" y1="797.91" x2="269.84" y2="961.04"/><path id="Path-98-2" data-name="Path-98" class="cls-14" d="M279.07,512.11a13.13,13.13,0,0,1-4.95,1.46,22,22,0,0,1-7.6-.57"/><path id="Path-99" class="cls-14" d="M296.27,561.88q8,11.8,8.37,24.21T300,604.83l3.19,27.22"/><path id="Path-100" class="cls-14" d="M290.64,607.41q-8,7-14.47,7.76"/><path id="Path-108-3" data-name="Path-108" class="cls-5" d="M239.42,588.06l-4.31,31.36L247.21,676l11.09,8,4.92,12.49s5.27,7.43,2.47,12.46c-3.72,6.7-23.4-11-23.49-12.77L233.71,681l-25.36-60.13.58-6.85,1.75-27.87C221.24,577.77,230.87,578,239.42,588.06Z"/><path id="Path-93" class="cls-14" d="M210.13,591c-2.06,16.15-2.58,24.29-1.45,29,0,0,22.61,51.51,25.1,59.59s8.42,16.5,8.42,16.5c13.16,13.95,19.53,16.31,22.89,13.21s-3.71-19.72-6.21-23.66q-2.5-3.93-12.34-10.07l-11.45-55.93,3.79-24.56"/><path class="cls-3" d="M221.45,544.74s-15.75,30.54-14.21,38.44,37.8,8.43,37.8,8.43l3-22-11.33-31.52C232.89,532.46,224.21,538.52,221.45,544.74Z"/><path class="cls-5" d="M990.72,575.87c-8.92,1.92-29.83,9.82-35.1,9.39s-42.42-48.64-61.76-75.62c-2.3-12.39-1.35-24,7.6-20.16s10.23,25.47,5,20.86c-.35-.31,48.32,46.23,54.06,48.09,3.72.14,11.9-9.68,15.06-9.8"/><path class="cls-15" d="M985.11,577.45c-8.92,1.93-24.22,8.24-29.49,7.81s-42.42-48.64-61.76-75.62c-2.3-12.39-1.35-24,7.6-20.16s10.23,25.47,5,20.86c-.35-.31,48.32,46.23,54.06,48.09,3.72.14,9.7-8,9.7-8"/><path id="Path-32" class="cls-5" d="M982.42,929.74c0,6.34-.53,20.94-.53,22.79,0,2.76,3.59,30.31,1.14,31s-76.48-.71-66.73-5.87,39.24-20.54,39.24-26.1l-.46-25.51Z"/><path id="Path-32-2" data-name="Path-32" class="cls-15" d="M981.89,940.25v12.28c0,2.76,3.59,30.31,1.14,31s-76.48-.71-66.73-5.87,39.24-20.54,39.24-26.1"/><path id="Path-33" class="cls-5" d="M900.4,932.73c-.82,13.81-1.07,32.67-.73,36.71a126.63,126.63,0,0,1,0,17.28l-66.49-6.28a1.81,1.81,0,0,1-.45-3.4c30.39-14.93,44.16-25.59,44.16-28.43l.07-22.55"/><path id="Path-33-2" data-name="Path-33" class="cls-15" d="M900.4,942.66q-1.23,20.72-.73,26.78a126.63,126.63,0,0,1,0,17.28l-66.49-6.28a1.81,1.81,0,0,1-.45-3.4c30.39-14.93,44.16-25.59,44.16-28.43"/><path class="cls-5" d="M920.21,460.21l-5.62,11.58c-2.19,7.18-2.35,12.24,2.28,19.82,4.2,3.73,6.63,5.87,11.92,8.33l-.94,20.72c-7.47-.64-11.16-.53-14.71,1.34,5.36,5.81,13.51,12,26.87,12s20.29-7.42,20.29-7.42l-14.19-4.81V498.66c5.64-3.41,6.89-6.24,7.26-12.76l-.87-7.45-25-18.24Z"/><path id="Path-20" class="cls-15" d="M952.78,524.23c-2.21-.85-4.43-1.69-6.67-2.46.34-7.71.28-15.4,0-23.11,5.1-2.87,7-6.23,7.26-12.1"/><path id="Path-21" class="cls-15" d="M915.5,470.63c-3.6,5.75-4.21,9.73-1.36,16.21,3,6.83,7.75,10.6,14.65,13.1-.28,6.89-.63,13.82-.94,20.72a33.43,33.43,0,0,0-8.66,0"/><path id="Path-31" class="cls-4" d="M870.75,658.76q-2.54,135.09-5.13,270.17c9.22,2.22,23.44,5,31.59,5.51s9.86-.07,15.94-2.94c1.51-72.43,3.27-144.84,4.86-217.26a46,46,0,0,0,8.38,0,48.57,48.57,0,0,0,8.29-2.07Q942,820.82,949.17,929.47c7.77,1.62,17.45,3.58,24.89,4s12.31-.56,19.14-1.62Q981.77,798,970.47,664.14Z"/><path id="Path-23" class="cls-4" d="M954.23,482.12a39.85,39.85,0,0,1-20.48,1.71c-8.28-3-6.85-12.85-7-19.86-5.07-6.05-10.44,3.84-13.06-7.87-3.42-15.28,9.19-21.81,26-20.19,5.3.52,9.37,3.51,10.21,9.4,3.86.72,7.23,1.7,8.9,5.46C961.25,460.91,958.12,472.73,954.23,482.12Z"/><path class="cls-3" d="M863.35,665c17.22,8.94,31.7,16.69,52.35,16.6s44.78-6.14,64.88-12.19c1.15-19,.28-20.39,1.72-43.22.56-8.68,1.44-19.58,2.41-31.19,1.62-18.92,3.47-39.74,4.57-55.87-.5-.66-1-1.29-1.56-1.88-7.64-8.46-18.37-10.5-29.15-12.09-7,6-20.26,4.62-27.82,3.18-6.72-1.28-12.23-2.3-15.29-7.89A83.57,83.57,0,0,0,901.59,522a.63.63,0,0,0-.19,0,69.59,69.59,0,0,0-10.8,3.64c-3.41,18.07-6.11,36.31-9,54.51C877.13,608.79,872.18,637.29,863.35,665Z"/><path class="cls-5" d="M869.69,581.63c-8.92,1.92-29.83,9.83-35.1,9.39s-42.41-48.64-61.75-75.62c-2.3-12.39-1.35-24,7.6-20.16s10.23,25.47,5,20.86c-.35-.31,48.32,46.24,54.06,48.1,3.71.13,11.9-9.69,15-9.81"/><path class="cls-15" d="M864.08,583.21c-8.91,1.93-24.22,8.25-29.49,7.81s-42.41-48.64-61.75-75.62c-2.3-12.39-1.35-24,7.6-20.16s10.23,25.47,5,20.86c-.35-.31,48.32,46.24,54.06,48.1,3.71.13,9.69-8,9.69-8"/><path class="cls-3" d="M852.4,553.08c5.64,10.41,11.3,20.61,14.65,32l14.58-4.89,17.73-6c.75-17.89,1.49-34.33,2.23-52.22v0l-.19,0a69.59,69.59,0,0,0-10.8,3.64C876.19,531.85,863.84,542.43,852.4,553.08Z"/><path class="cls-3" d="M974.66,591.5c8.93,4.47,19.84-6,23-19.22s-6.33-35.75-15.3-39.8S972.87,590.18,974.66,591.5Z"/><path class="cls-15" d="M859.87,546.3c9.34-8.19,19.4-15.76,30.73-20.61"/><path class="cls-15" d="M869.3,644.06c5.32-21,9-42.42,12.33-63.86l-7.47,2.51"/><path class="cls-15" d="M979.16,530.68c1,.52,2,1.08,2.89,1.69a1.82,1.82,0,0,1,.3.11c9,4,18.45,26.54,15.3,39.8-2,8.28-6.95,15.45-12.59,18.58-.12,1.38-.24,2.74-.35,4.1-1,11.61-1.85,22.51-2.41,31.19-.89,14.12-.9,20-1,27"/><path id="Path-22" class="cls-15" d="M924.42,466.11l-5.1-.62Z"/><path id="Path-22-2" data-name="Path-22" class="cls-15" d="M924.55,470.26l-5.1-.62Z"/><path class="cls-15" d="M905.86,501.31s-5.26-5.06-5.68-3.17,3.71,7.68,3.71,7.68"/></svg>