<svg xmlns="http://www.w3.org/2000/svg" height="40px" viewBox="0 -960 960 960" width="40px" fill="#e8eaed"><path d="M274.67-80.67q58.66 0 99.83-31t61.5-85q19-50.66 37.17-76.33 18.16-25.67 72.83-69 64.67-52 96-113t31.33-147.67q0-119.66-77.5-197.5Q518.33-878 398.67-878q-118.34 0-196.84 75.83-78.5 75.84-81.83 191.5h66.67q3.33-87 62.83-143.83 59.5-56.83 149.17-56.83 88.33 0 148.16 60.16 59.84 60.17 59.84 148.5Q606.67-532 579-481t-87.67 96.33q-43.33 32-68.66 66.67-25.34 34.67-44 82-16 42.67-40.84 65.67-24.83 23-63.16 23-34.34 0-59.17-23.84-24.83-23.83-28.17-58.16h-66.66q3.33 62 47.66 105.33 44.34 43.33 106.34 43.33ZM718-298q57.67-62 89.83-140.83Q840-517.67 840-605.33q0-87.34-31.17-167Q777.67-852 718-912.67l-49.33 45.34q51.33 52 78 119.5 26.66 67.5 26.66 142.5 0 74-27 141.33-27 67.33-77.66 120L718-298ZM398.67-507.33q40 0 67.66-27.84Q494-563 494-602.67q0-40-27.67-68.33-27.66-28.33-67.66-28.33T330.33-671Q302-642.67 302-602.67q0 39.67 28.33 67.5 28.34 27.84 68.34 27.84Z"/></svg>